<svg width="224.22508" height="312.80777" xmlns="http://www.w3.org/2000/svg">

 <metadata id="metadata4428">image/svg+xml</metadata>
 <g>
  <title>background</title>
  <rect fill="none" id="canvas_background" height="402" width="582" y="-1" x="-1"/>
 </g>
 <g>
  <title>Layer 1</title>
  <rect fill="#ffffff" stroke="#000000" stroke-width="0.996733" stroke-miterlimit="4" ry="10.629921" rx="10.629921" id="rect3232" width="223.22835" height="311.81104" x="0.498155" y="0.498357"/>
  <path stroke="null" fill="#d40000" d="m91.10684,106.291328c12.453757,-0.826996 18.946306,9.809966 20.213298,18.19331c0.755523,1.331649 1.169196,0.956415 1.458923,-0.073739c0.608916,-10.763051 10.241402,-19.559528 19.162817,-18.356705c14.517761,0.188776 23.341206,16.343638 20.860391,30.016552c-3.030635,16.703078 -12.027882,26.760742 -18.840665,37.119151c-7.707418,10.725118 -18.082178,26.217564 -21.42468,33.674007c0,0 -10.543681,-16.045752 -24.261118,-34.916523c-9.172617,-12.618511 -16.513953,-26.292227 -17.197306,-38.064461c-0.7808,-13.449988 4.740412,-25.506755 20.028339,-27.591504l0,-0.000087z" id="path8512"/>
 </g>
</svg>