<svg width="224.22508" height="312.80777" xmlns="http://www.w3.org/2000/svg">

 <metadata id="metadata4428">image/svg+xml</metadata>
 <g>
  <title>background</title>
  <rect fill="none" id="canvas_background" height="402" width="582" y="-1" x="-1"/>
 </g>
 <g>
  <title>Layer 1</title>
  <rect fill="#ffffff" stroke="#000000" stroke-width="0.996733" stroke-miterlimit="4" y="0.498303" x="0.498346" height="311.81104" width="223.22835" id="rect3232-1" rx="10.629921" ry="10.629921"/>
  <path stroke="null" fill="#000000" id="path3192" d="m108.824229,174.084189c0.023161,-3.127775 -2.450093,-3.187576 -2.421991,-0.904487c-0.207365,11.470165 -9.907374,17.117947 -16.954556,15.778194c-10.864065,-2.065363 -14.33153,-12.849663 -14.227925,-19.200866c0.319926,-19.603692 20.053766,-34.059225 37.860328,-59.190372c13.047347,22.683216 34.582317,40.499782 35.857236,58.034144c1.6949,23.31209 -27.806578,32.007604 -32.018737,4.83705c-0.271752,-1.919311 -2.531773,-2.780997 -2.356369,-0.100363c0.640007,7.446303 -0.270054,10.547922 8.130485,28.903623l-21.958965,0c4.863283,-8.576977 7.759451,-19.106911 8.090495,-28.15686l0,-0.000062z"/>
 </g>
</svg>